<svg class="icon"
  style="width: 1.134765625em;height: 1em;vertical-align: middle;fill: currentColor;overflow: hidden;"
  viewBox="0 0 1162 1024" version="1.1" xmlns="http://www.w3.org/2000/svg" p-id="12450">
  <path
    d="M53.77 170.627l-0.345-63.684c-0.283-54.744 19.673-47.14 102.37-47.564l295.719-1.57c125.326-0.645 158.072 26.161 182.443 67.974l18.133 41.765z m1105.048 64.628l3.661 712.788c0.205 38.859-31.598 70.583-70.85 70.709l-1015.514 5.217c-39.283 0.204-71.385-31.238-71.589-70.065L0.001 73.521C-0.188 34.68 31.6 2.938 70.866 2.734L535.138 0.346C596.293 2.64 678.41 30.389 722.123 149.273l6.458 17.835 358.665-1.839c39.282-0.267 71.368 31.143 71.572 69.986zM272.291 752.998l23.57-65.837h123.221l23.57 65.837h67.565L400.572 440.734h-79.335L208.104 752.998z m367.323 0V633.155h48.946q104.648-5.075 108.027-96.21 1.697-97.908-126.584-96.211h-96.21v312.264z m294.744-312.264h-67.566v312.264h67.566z"
    fill="#FF9F39" p-id="12451"></path>
  <path
    d="M312.8 634.852h89.47l-42.206-133.356h-1.681l-45.584 133.356z m326.814-141.794v87.773h20.333q67.565 6.74 65.837-43.887 1.666-50.658-65.837-43.886z"
    fill="#FF9F39" p-id="12452"></path>
</svg>