<svg width="28" height="13" viewBox="0 0 28 13" fill="none" xmlns="http://www.w3.org/2000/svg">
<path d="M5.384 12.16C2.024 12.16 0.00800002 11.104 0.00800002 6.448C0.00800002 2.16 2.088 0.735999 5.496 0.735999C6.504 0.735999 7.816 0.879999 8.44 1.136V2.992C7.624 2.688 6.664 2.544 5.64 2.544C3.384 2.544 2.264 3.376 2.264 6.448C2.264 9.696 3.256 10.384 5.544 10.384C6.04 10.384 6.536 10.368 6.936 10.256V7.504H4.936V5.744H8.904V11.68C8.072 11.936 6.776 12.16 5.384 12.16ZM13.4549 10.16H18.2229V12H11.3589V0.896H17.9349V2.72H13.4549V5.408H17.6149V7.152H13.4549V10.16ZM27.416 0.896V2.736H24.392V12H22.296V2.736H19.288V0.896H27.416Z" fill="#4CAF50"/>
</svg>
