<svg width="27" height="12" viewBox="0 0 27 12" fill="none" xmlns="http://www.w3.org/2000/svg">
<path d="M0.312 12V0.896H3.864C7.128 0.896 8.136 1.968 8.136 4.592C8.136 7.392 6.888 8.4 3.864 8.4H2.408V12H0.312ZM2.408 6.704H3.608C5.4 6.704 5.992 6.24 5.992 4.624C5.992 3.104 5.384 2.592 3.608 2.592H2.408V6.704ZM16.9604 12L15.9364 9.056H11.2964L10.2404 12H8.08038L12.2404 0.896H15.0564L19.1844 12H16.9604ZM11.9204 7.296H15.3124L13.7284 2.768H13.5364L11.9204 7.296ZM26.4004 0.896V2.736H23.3764V12H21.2804V2.736H18.2724V0.896H26.4004Z" fill="#EB2F96"/>
</svg>
