<svg width="39" height="13" viewBox="0 0 39 13" fill="none" xmlns="http://www.w3.org/2000/svg">
<path d="M0.312 12V0.896H3.864C7.128 0.896 8.136 1.968 8.136 4.592C8.136 7.392 6.888 8.4 3.864 8.4H2.408V12H0.312ZM2.408 6.704H3.608C5.4 6.704 5.992 6.24 5.992 4.624C5.992 3.104 5.384 2.592 3.608 2.592H2.408V6.704ZM14.9055 12.16C11.7055 12.16 9.9455 10.976 9.9455 6.448C9.9455 1.968 11.7055 0.735999 14.9055 0.735999C18.1055 0.735999 19.8495 1.968 19.8495 6.448C19.8495 10.976 18.1055 12.16 14.9055 12.16ZM14.9055 10.4C17.1615 10.4 17.6575 9.328 17.6575 6.448C17.6575 3.616 17.1615 2.464 14.9055 2.464C12.6335 2.464 12.1375 3.616 12.1375 6.448C12.1375 9.328 12.6335 10.4 14.9055 10.4ZM25.019 12.16C23.707 12.16 22.379 11.968 21.755 11.76V9.888C22.427 10.144 23.787 10.352 24.955 10.352C26.491 10.352 27.099 9.984 27.099 8.848C27.099 7.808 26.731 7.52 24.907 7.056C22.571 6.512 21.835 5.856 21.835 3.904C21.835 1.648 23.195 0.719999 25.771 0.719999C26.971 0.719999 28.027 0.912 28.603 1.12V2.896C28.027 2.688 26.795 2.48 25.835 2.48C24.491 2.48 23.883 2.752 23.883 3.856C23.883 4.704 24.139 4.96 25.899 5.392C28.491 6.032 29.179 6.768 29.179 8.88C29.179 11.056 27.915 12.16 25.019 12.16ZM38.2285 0.896V2.736H35.2045V12H33.1085V2.736H30.1005V0.896H38.2285Z" fill="#FA8C16"/>
</svg>
