<svg width="29" height="13" viewBox="0 0 29 13" fill="none" xmlns="http://www.w3.org/2000/svg">
<path d="M0.312 12V0.896H3.864C7.128 0.896 8.136 1.968 8.136 4.592C8.136 7.392 6.888 8.4 3.864 8.4H2.408V12H0.312ZM2.408 6.704H3.608C5.4 6.704 5.992 6.24 5.992 4.624C5.992 3.104 5.384 2.592 3.608 2.592H2.408V6.704ZM14.6815 12.16C11.8015 12.16 10.2015 11.216 10.2015 8.352V0.896H12.2975V8.064C12.2975 9.664 12.8415 10.352 14.6975 10.352C16.6335 10.352 17.1135 9.616 17.1135 8.064V0.896H19.1935V8.352C19.1935 11.056 17.6095 12.16 14.6815 12.16ZM28.8691 0.896V2.736H25.8451V12H23.7491V2.736H20.7411V0.896H28.8691Z" fill="#1890FF"/>
</svg>
